<svg width="71" height="71" viewBox="0 0 71 71" fill="none" xmlns="http://www.w3.org/2000/svg">
<circle cx="35.5" cy="35.5" r="35.5" fill="#EB5757"/>
<path d="M24.746 30.982C24.746 29.11 25.184 27.556 26.06 26.32C26.948 25.084 28.142 24.16 29.642 23.548C31.142 22.924 32.81 22.612 34.646 22.612C36.59 22.612 38.318 22.864 39.83 23.368C41.354 23.872 42.554 24.64 43.43 25.672C44.306 26.704 44.744 28.012 44.744 29.596C44.744 30.88 44.372 32.014 43.628 32.998C42.884 33.97 41.672 34.744 39.992 35.32C40.952 35.584 41.84 35.986 42.656 36.526C43.472 37.066 44.126 37.756 44.618 38.596C45.11 39.436 45.356 40.444 45.356 41.62C45.356 42.892 45.074 44.014 44.51 44.986C43.946 45.958 43.166 46.774 42.17 47.434C41.174 48.094 40.022 48.586 38.714 48.91C37.406 49.234 36.008 49.396 34.52 49.396C32.432 49.384 30.65 49.042 29.174 48.37C27.71 47.686 26.582 46.714 25.79 45.454C25.01 44.194 24.608 42.694 24.584 40.954H29.642C29.894 42.43 30.47 43.498 31.37 44.158C32.27 44.818 33.338 45.148 34.574 45.148C35.654 45.148 36.578 44.992 37.346 44.68C38.126 44.368 38.72 43.936 39.128 43.384C39.548 42.82 39.758 42.178 39.758 41.458C39.758 40.714 39.542 40.072 39.11 39.532C38.69 38.992 38.102 38.572 37.346 38.272C36.59 37.96 35.726 37.792 34.754 37.768L32.27 37.678V33.502L34.502 33.376C35.438 33.34 36.254 33.166 36.95 32.854C37.646 32.542 38.186 32.128 38.57 31.612C38.966 31.084 39.164 30.49 39.164 29.83C39.164 29.194 38.966 28.642 38.57 28.174C38.174 27.706 37.628 27.34 36.932 27.076C36.236 26.812 35.438 26.68 34.538 26.68C33.71 26.68 32.948 26.818 32.252 27.094C31.556 27.37 30.986 27.826 30.542 28.462C30.098 29.086 29.84 29.926 29.768 30.982H24.746Z" fill="white"/>
</svg>
