<svg width="71" height="71" viewBox="0 0 71 71" fill="none" xmlns="http://www.w3.org/2000/svg">
<circle cx="35.5" cy="35.5" r="35.5" fill="#219653"/>
<path d="M27.034 49V46.408V45.076C27.034 43.756 27.28 42.616 27.772 41.656C28.264 40.684 28.912 39.844 29.716 39.136C30.532 38.416 31.42 37.786 32.38 37.246C33.352 36.706 34.324 36.196 35.296 35.716C36.268 35.236 37.156 34.756 37.96 34.276C38.776 33.784 39.43 33.238 39.922 32.638C40.414 32.038 40.66 31.33 40.66 30.514C40.66 29.47 40.294 28.618 39.562 27.958C38.842 27.298 37.852 26.968 36.592 26.968C35.284 26.968 34.174 27.346 33.262 28.102C32.35 28.858 31.786 29.998 31.57 31.522H26.548C26.572 29.866 26.956 28.366 27.7 27.022C28.456 25.666 29.584 24.592 31.084 23.8C32.584 23.008 34.468 22.612 36.736 22.612C38.68 22.612 40.354 22.942 41.758 23.602C43.174 24.262 44.266 25.18 45.034 26.356C45.802 27.532 46.186 28.906 46.186 30.478C46.186 31.786 45.946 32.914 45.466 33.862C44.986 34.81 44.35 35.62 43.558 36.292C42.766 36.964 41.896 37.552 40.948 38.056C40 38.56 39.052 39.028 38.104 39.46C37.168 39.892 36.304 40.336 35.512 40.792C34.72 41.236 34.084 41.74 33.604 42.304C33.124 42.868 32.884 43.546 32.884 44.338V44.572H46.15V49H27.034Z" fill="white"/>
</svg>
